                 ::::::::::: ::::    ::::      :::      :::::::: ::::::::::: ::::    ::: :::::::::: 
                      :+:     +:+:+: :+:+:+   :+: :+:   :+:    :+:    :+:     :+:+:   :+: :+:        
                      +:+     +:+ +:+:+ +:+  +:+   +:+  +:+           +:+     :+:+:+  +:+ +:+        
                      +#+     +#+  +:+  +#+ +#++:++#++: :#:           +#+     +#+ +:+ +#+ +#++:++#   
                      +#+     +#+       +#+ +#+     +#+ +#+   +#+#    +#+     +#+  +#+#+# +#+        
                      #+#     #+#       #+# #+#     #+# #+#    #+#    #+#     #+#   #+#+# #+#        
                  ########### ###       ### ###     ###  ######## ########### ###    #### ##########   
                                                



                                         Another Fine Release Brought to you from -Imagine                   
                                                     http://imaginegroup.me/  
    
********************************************************************************************************************                                
                                      Cloudy with a Chance of Meatballs TS XVID V2-IMAGINE
********************************************************************************************************************

                              Ripper ...........: Imagine         Video Codec ......: XviD
                              Release Date .....: 12/10/2009      Video Quality ....: TS
                              Theater Date .....: 18/09/2009      Resolution .......: 704 x 336 
                              Audio Codec ......: MP3             Audio Bitrate ....: 224 Kbps
                              IMDb URL..........: http://www.imdb.com/title/tt0844471/
                              IMDB Rating ......: 7.6/10   2,812 votes 




[color=yellow]DETAILS:[/color]


Video
Format                           : MPEG-4 Visual
Format profile                   : Streaming Video@L1
Format settings, BVOP            : Yes
Format settings, QPel            : No
Format settings, GMC             : No warppoints
Format settings, Matrix          : Default (MPEG)
Muxing mode                      : Packed bitstream
Codec ID                         : XVID
Codec ID/Hint                    : XviD
Duration                         : 1h 19mn
Bit rate                         : 2 267 Kbps
Width                            : 704 pixels
Height                           : 336 pixels
Display aspect ratio             : 2.095
Frame rate                       : 29.970 fps
Resolution                       : 24 bits
Colorimetry                      : 4:2:0
Scan type                        : Progressive
Bits/(Pixel*Frame)               : 0.320
Stream size                      : 1.26 GiB (91%)
Writing library                  : XviD 1.2.0.dev47 (UTC 2006-11-01)

Audio
Format                           : MPEG Audio
Format version                   : Version 1
Format profile                   : Layer 3
Codec ID                         : 55
Codec ID/Hint                    : MP3
Duration                         : 1h 19mn
Bit rate mode                    : Constant
Bit rate                         : 224 Kbps
Channel(s)                       : 2 channels
Sampling rate                    : 48.0 KHz
Resolution                       : 16 bits
Stream size                      : 128 MiB (9%)
Alignment                        : Split accross interleaves
Interleave, duration             : 33 ms (1.00 video frame)
Interleave, preload duration     : 500 ms



[color=yellow]NOTES:[/color]
Thanks to MrFreestyle for the Video.The audio is ours.
The first 4 minutes is cam audio , sorry
Lots of cuts in this sync job.
especailly in the first half, also missing around 45 secs in the middle of the movie.
So go ahead burn one for the kids .... yeah a disc ;)

OK better vid and better audio on this one....
IMAGiNE bringing you another release.....


[color=yellow]SCREENS:[/color]


[color=yellow]GREETS:[/color]

FLAWL3SS,ViSiON,DEViSE,FUSiON,STG,SecretMyth,Lynks
And to all the other p2p grps past and present 

join us at moviefox.org